M48
; DRILL file {KiCad (6.0.11)} date Thu Jun  8 19:17:07 2023
; FORMAT={-:-/ absolute / metric / decimal}
; #@! TF.CreationDate,2023-06-08T19:17:07+09:00
; #@! TF.GenerationSoftware,Kicad,Pcbnew,(6.0.11)
; #@! TF.FileFunction,Plated,1,2,PTH
FMAT,2
METRIC
; #@! TA.AperFunction,Plated,PTH,ComponentDrill
T1C0.800
%
G90
G05
T1
X134.62Y-101.6
X134.62Y-116.84
X137.16Y-101.6
X137.16Y-116.84
X139.7Y-101.6
X139.7Y-116.84
X142.24Y-101.6
X142.24Y-116.84
X144.78Y-101.6
X144.78Y-116.84
X147.32Y-101.6
X147.32Y-116.84
X149.86Y-101.6
X149.86Y-116.84
X152.4Y-101.6
X152.4Y-116.84
X154.94Y-101.6
X154.94Y-116.84
X157.48Y-101.6
X157.48Y-116.84
X160.02Y-101.6
X160.02Y-116.84
X162.56Y-101.6
X162.56Y-116.84
X165.1Y-101.6
X165.1Y-116.84
X167.64Y-101.6
X167.64Y-116.84
T0
M30
